<svg xmlns="http://www.w3.org/2000/svg" xmlns:xlink="http://www.w3.org/1999/xlink" fill="none" version="1.1" width="24" height="24" viewBox="0 0 24 24"><defs><clipPath id="master_svg0_60_04694"><rect x="0" y="0" width="24" height="24" rx="0"/></clipPath></defs><g clip-path="url(#master_svg0_60_04694)"><g><rect x="0" y="0" width="24" height="24" rx="0" fill="#FFFFFF" fill-opacity="0"/></g><g><path d="M1.8648449999999999,7.7181020703125Q1,9.7628220703125,1,12.0001220703125Q1,14.2374220703125,1.8648449999999999,16.2821220703125Q2.69986,18.2563220703125,4.22182,19.7783220703125Q5.74379,21.3002220703125,7.718,22.1352220703125Q9.76271,23.0001220703125,12,23.0001220703125Q14.2373,23.0001220703125,16.282,22.1352220703125Q18.2562,21.3002220703125,19.7782,19.7783220703125Q21.0412,18.5153220703125,21.8311,16.9408220703125Q21.8589,16.8918220703125,21.8811,16.8399220703125Q22.0152,16.5657220703125,22.1352,16.2821220703125Q23,14.2374220703125,23,12.0001220703125Q23,9.7628220703125,22.1352,7.7181020703125Q21.3001,5.7438920703125,19.7782,4.2219320703125Q18.2562,2.6999820703125,16.282,1.8649630703125Q14.2373,1.0001220703125,12,1.0001220703125Q9.76272,1.0001220703125,7.718,1.8649630703125Q5.74378,2.6999820703125,4.221830000000001,4.2219320703125Q2.6998699999999998,5.7438920703125,1.8648449999999999,7.7181020703125ZM13.339,3.0977020703125Q12.6806,3.0001220703125,12,3.0001220703125Q10.16829,3.0001220703125,8.4971,3.7069720703125Q6.88216,4.3900320703125,5.63604,5.6361520703125Q4.38991,6.8822720703125,3.70685,8.4972020703125Q3,10.1683920703125,3,12.0001220703125Q3,13.3237220703125,3.36908,14.5634220703125Q3.37064,14.5641220703125,3.37219,14.5647220703125L3.37386,14.5654220703125Q4.76401,15.1225220703125,5.16813,14.7539220703125Q5.27391,14.6575220703125,5.3632,13.6457220703125Q5.44818,12.6829220703125,5.5895,12.2127220703125Q5.89502,11.1960220703125,6.69803,10.7583620703125Q7.48076,10.3317420703125,8.46644,10.7258420703125Q8.88988,10.8951420703125,9.70088,11.4198220703125Q10.51469,11.9463220703125,10.87555,12.0716220703125Q11.2526,12.2026220703125,11.4879,12.0712220703125Q11.6897,11.9586220703125,11.7304,11.7082220703125Q11.778,11.4153220703125,11.6737,10.5835020703125Q11.5582,9.6628320703125,11.598,9.1949320703125Q11.6837,8.187842070312499,12.3574,7.6019720703125Q12.8759,7.1510720703125,13.5669,6.9729320703125Q13.9287,6.8796520703125,14.5516,6.8358720703125Q14.9144,6.8103720703125,15.0152,6.7848720703125Q15.0415,6.7204420703125,15.062,6.5888620703125Q15.0889,6.4168820703125,15.0806,6.3200920703125Q15.029,6.2834120703125,14.8909,6.2013120703125Q14.3786,5.8966020703125,14.11,5.5982820703125Q13.6376,5.0733320703125,13.495,4.2805720703125Q13.3675,3.5716120703125,13.339,3.0977020703125ZM4.434419999999999,16.8799220703125Q5.70315,16.9728220703125,6.51577,16.2317220703125Q7.00701,15.7838220703125,7.19809,14.9743220703125Q7.28693,14.5980220703125,7.35546,13.8216220703125Q7.45099,12.7392220703125,7.6176,12.5462220703125Q7.65968,12.5572220703125,7.72394,12.5829220703125Q7.96679,12.6800220703125,8.61451,13.0990220703125Q9.63073,13.7565220703125,10.21935,13.9609220703125Q11.444,14.3863220703125,12.4629,13.8175220703125Q13.5086,13.2337220703125,13.7045,12.0291220703125Q13.7983,11.4520220703125,13.6581,10.3345820703125Q13.5209,9.2406220703125,13.6698,9.1111520703125Q13.9305,8.8844620703125,14.6919,8.8309420703125Q15.5805,8.768482070312501,16.0276,8.516672070312499Q16.8581,8.0489320703125,17.0381,6.8977520703125Q17.1933,5.9049220703125,16.786099999999998,5.2564520703125Q16.5304,4.8493520703125,15.9132,4.4822920703125Q15.6619,4.3328520703125,15.5966,4.2603020703125Q15.5052,4.1587320703124995,15.4634,3.9264820703125Q15.4394,3.7929220703125,15.4197,3.6722620703125Q15.4614,3.6894020703125,15.5029,3.7069720703125Q17.1178,4.3900320703125,18.364,5.6361520703125Q19.6101,6.8822720703125,20.2931,8.4972020703125Q21,10.1683820703125,21,12.0001220703125Q21,13.4190220703125,20.5758,14.7416220703125Q17.6674,12.3310220703125,15.6178,13.4056220703125Q14.469,14.0080220703125,14.0827,14.9267220703125Q13.8505,15.4790220703125,13.8871,16.3692220703125Q13.9003,16.690122070312498,13.8867,16.726722070312498Q13.8488,16.8290220703125,13.6289,17.0297220703125Q12.8505,17.7403220703125,12.5456,18.6975220703125Q12.1876,19.8218220703125,12.7578,20.9693220703125Q12.3824,21.0001220703125,12,21.0001220703125Q10.16829,21.0001220703125,8.4971,20.2932220703125Q6.88216,19.6102220703125,5.63604,18.3640220703125Q4.949870000000001,17.6779220703125,4.434419999999999,16.8799220703125ZM14.4513,19.3044220703125Q14.2874,19.8192220703125,14.8445,20.5422220703125Q15.1768,20.4312220703125,15.5029,20.2932220703125Q17.1178,19.6102220703125,18.364,18.3640220703125Q19.1521,17.5759220703125,19.7149,16.6403220703125Q18.63,15.6531220703125,17.785,15.2798220703125Q17.0065,14.9358220703125,16.546599999999998,15.1769220703125Q16.0342,15.4456220703125,15.9264,15.7019220703125Q15.8672,15.8428220703125,15.8854,16.287222070312502Q15.9151,17.0087220703125,15.7622,17.4214220703125Q15.5556,17.9789220703125,14.9774,18.5068220703125Q14.5939,18.8569220703125,14.4513,19.3044220703125Z" fill-rule="evenodd" fill="#EAF2FF" fill-opacity="0.800000011920929"/></g></g></svg>