<svg xmlns="http://www.w3.org/2000/svg" xmlns:xlink="http://www.w3.org/1999/xlink" fill="none" version="1.1" width="22" height="22" viewBox="0 0 22 22"><defs><clipPath id="master_svg0_77_18290"><rect x="0" y="0" width="22" height="22" rx="0"/></clipPath></defs><g clip-path="url(#master_svg0_77_18290)"><g><path d="M5.97265625,4.81085634375C5.97265625,5.27614734375,6.34984625,5.65333734375,6.81513325,5.65333734375L15.19496625,5.65333734375C15.70537625,5.73198734375,16.16575625,5.33711734375,16.16575625,4.82068634375C16.16575625,4.30425834375,15.70537625,3.90938234375,15.19496625,3.98803784375L6.80390025,3.98803784375C6.35055525,3.99396064375,5.98319785,4.35759534375,5.97265625,4.81085634375ZM5.97265625,10.15496734375C5.97265625,10.62025734375,6.34984625,10.99744734375,6.81513325,10.99744734375L15.19496625,10.99744734375C15.70537625,11.07609734375,16.16575625,10.681227343749999,16.16575625,10.16479734375C16.16575625,9.64836734375,15.70537625,9.25349734375,15.19496625,9.33214734375L6.80390025,9.33214734375C6.35055525,9.338077343750001,5.98319785,9.70170734375,5.97265625,10.15496734375Z" fill="#EAF2FF" fill-opacity="0.800000011920929"/></g><g><path d="M20.017171875,21.9999C19.815771875,22.0002,19.619371875,21.9373,19.455571875,21.8202L10.997061875,15.7094L2.541401875,21.8145C2.2482418749999997,22.0291,1.859082875,22.06,1.535806875,21.8942C1.212531875,21.7284,1.010482545,21.3943,1.0137103126,21.031L1.0137103126,0.966044C1.0137102306,0.432515,1.446220875,0.00000417441,1.9797508750000001,0.00000420235L20.019971875,0.00000420235C20.554171875,-0.00155662,20.987571875,0.43187,20.986071875,0.966044L20.986071875,21.0338C20.986071875,21.5685,20.551771875,22.0014,20.017171875,21.9999ZM10.997061875,13.5527C11.198171875,13.5542,11.394071875,13.6169,11.558671875,13.7324L19.051171875,19.1411L19.051171875,1.93208L2.940171875,1.93208L2.940171875,19.1467L10.432601875,13.738C10.595481875,13.6183,10.792141875,13.5534,10.994251875,13.5527L10.997061875,13.5527Z" fill="#EAF2FF" fill-opacity="0.800000011920929"/></g></g></svg>