<svg xmlns="http://www.w3.org/2000/svg" xmlns:xlink="http://www.w3.org/1999/xlink" fill="none" version="1.1" width="18" height="18" viewBox="0 0 18 18"><g><path d="M0,16.25L0,1.75Q0,1.02513,0.512563,0.512563Q1.02513,0,1.75,0L16.25,0Q16.9749,0,17.4874,0.512563Q18,1.02512,18,1.75L18,16.25Q18,16.9749,17.4874,17.4874Q16.9749,18,16.25,18L1.75,18Q1.02512,18,0.512563,17.4874Q0,16.9749,0,16.25ZM1.5,16.25Q1.5,16.5,1.75,16.5L16.25,16.5Q16.5,16.5,16.5,16.25L16.5,1.75Q16.5,1.5,16.25,1.5L1.75,1.5Q1.64645,1.5,1.57322,1.57322Q1.5,1.64645,1.5,1.75L1.5,16.25ZM8.25,5.5L8.25,4.4165Q8.25,4.34264,8.26441,4.27019Q8.27882,4.19774,8.30709,4.12949Q8.33536,4.06124,8.3764,3.99983Q8.41744,3.93841,8.46967,3.88617Q8.5219,3.83394,8.58332,3.7929Q8.64474,3.75186,8.71299,3.72359Q8.78123,3.69533,8.85368,3.68091Q8.92613,3.6665,9,3.6665Q9.07387,3.6665,9.14632,3.68091Q9.21877,3.69533,9.28701,3.72359Q9.35526,3.75186,9.41668,3.7929Q9.4781,3.83394,9.53033,3.88617Q9.58256,3.93841,9.6236,3.99983Q9.66464,4.06124,9.69291,4.12949Q9.72118,4.19774,9.73559,4.27019Q9.75,4.34264,9.75,4.4165L9.75,5.5L13.5827,5.5Q13.6565,5.5,13.729,5.51441Q13.8014,5.52882,13.8697,5.55709Q13.9379,5.58536,13.9994,5.6264Q14.0608,5.66744,14.113,5.71967Q14.1652,5.7719,14.2063,5.83332Q14.2473,5.89474,14.2756,5.96299Q14.3039,6.03123,14.3183,6.10368Q14.3327,6.17613,14.3327,6.25L14.3327,10.8333Q14.3327,10.9072,14.3183,10.9796Q14.3039,11.0521,14.2756,11.1203Q14.2473,11.1886,14.2063,11.25Q14.1652,11.3114,14.113,11.3637Q14.0608,11.4159,13.9994,11.4569Q13.9379,11.498,13.8697,11.5262Q13.8014,11.5545,13.729,11.5689Q13.6565,11.5833,13.5827,11.5833L9.75,11.5833L9.75,14.0415Q9.75,14.1154,9.73559,14.1878Q9.72118,14.2603,9.69291,14.3285Q9.66464,14.3968,9.6236,14.4582Q9.58256,14.5196,9.53033,14.5718Q9.4781,14.6241,9.41668,14.6651Q9.35526,14.7061,9.28701,14.7344Q9.21877,14.7627,9.14632,14.7771Q9.07387,14.7915,9,14.7915Q8.92613,14.7915,8.85368,14.7771Q8.78123,14.7627,8.71299,14.7344Q8.64474,14.7061,8.58332,14.6651Q8.5219,14.6241,8.46967,14.5718Q8.41744,14.5196,8.3764,14.4582Q8.33536,14.3968,8.30709,14.3285Q8.27882,14.2603,8.26441,14.1878Q8.25,14.1154,8.25,14.0415L8.25,11.5833L4.41602,11.5833Q4.34215,11.5833,4.2697,11.5689Q4.19725,11.5545,4.129,11.5262Q4.06076,11.498,3.99934,11.4569Q3.93792,11.4159,3.88569,11.3637Q3.83345,11.3114,3.79241,11.25Q3.75137,11.1886,3.72311,11.1203Q3.69484,11.0521,3.68043,10.9796Q3.66602,10.9072,3.66602,10.8333L3.66602,6.25Q3.66602,6.17613,3.68043,6.10368Q3.69484,6.03123,3.72311,5.96299Q3.75137,5.89474,3.79241,5.83332Q3.83345,5.7719,3.88569,5.71967Q3.93792,5.66744,3.99934,5.6264Q4.06076,5.58536,4.129,5.55709Q4.19725,5.52882,4.2697,5.51441Q4.34215,5.5,4.41602,5.5L8.25,5.5ZM8.25,7L5.16602,7L5.16602,10.0833L8.25,10.0833L8.25,7ZM9.75,10.0833L12.8327,10.0833L12.8327,7L9.75,7L9.75,10.0833Z" fill-rule="evenodd" fill="#EAF2FF" fill-opacity="0.800000011920929"/></g></svg>