<svg xmlns="http://www.w3.org/2000/svg" xmlns:xlink="http://www.w3.org/1999/xlink" fill="none" version="1.1" width="36" height="36" viewBox="0 0 36 36"><defs><filter id="master_svg0_191_08842" filterUnits="objectBoundingBox" color-interpolation-filters="sRGB" x="0" y="0" width="36" height="36"><feFlood flood-opacity="0" result="BackgroundImageFix"/><feBlend mode="normal" in="SourceGraphic" in2="BackgroundImageFix" result="shape"/><feGaussianBlur in="BackgroundImage" stdDeviation="2"/><feComposite in2="SourceAlpha" operator="in" result="effect1_foregroundBlur"/><feBlend mode="normal" in="SourceGraphic" in2="effect1_foregroundBlur" result="shape"/></filter><clipPath id="master_svg1_191_06578"><rect x="5" y="5" width="25.999998092651367" height="26" rx="0"/></clipPath></defs><g><g filter="url(#master_svg0_191_08842)"><ellipse cx="18" cy="18" rx="18" ry="18" fill="#272C36" fill-opacity="0.800000011920929"/></g><g clip-path="url(#master_svg1_191_06578)"><g><path d="M17.98582883300781,29.355194140625C16.453968833007814,29.355194140625,14.967598833007813,29.055094140625,13.567818833007813,28.462994140625C12.216268833007813,27.891194140625,11.002598833007813,27.073094140625,9.960568833007812,26.031094140625C8.918538833007812,24.988994140625,8.100198833007813,23.775394140625,7.528655833007813,22.423794140625C6.936545833007813,21.023994140625,6.6364288330078125,19.537694140625,6.6364288330078125,18.005894140625C6.6364288330078125,16.474034140625,6.936545833007813,14.987664140625,7.528655833007813,13.587884140625C8.100448833007812,12.236334140625,8.918538833007812,11.022664140625,9.960568833007812,9.980634140625C11.002598833007813,8.938604140625,12.216268833007813,8.120264140625,13.567818833007813,7.548721140625C14.967598833007813,6.956611140625,16.453968833007814,6.656494140625,17.98582883300781,6.656494140625C19.517628833007812,6.656494140625,21.003928833007812,6.956611140625,22.40372883300781,7.548721140625C23.755328833007813,8.120514140625,24.968928833007812,8.938604140625,26.011028833007813,9.980634140625C27.05302883300781,11.022664140625,27.871328833007812,12.236334140625,28.442928833007812,13.587884140625C29.03502883300781,14.987664140625,29.33512883300781,16.474034140625,29.33512883300781,18.005894140625C29.33512883300781,19.537694140625,29.03502883300781,21.023994140625,28.442928833007812,22.423794140625C27.871128833007813,23.775394140625,27.05302883300781,24.988994140625,26.011028833007813,26.031094140625C24.968928833007812,27.073094140625,23.755328833007813,27.891394140625,22.40372883300781,28.462994140625C21.004228833007815,29.055094140625,19.517628833007812,29.355194140625,17.98582883300781,29.355194140625ZM17.98582883300781,8.280984140625C12.623538833007814,8.280984140625,8.261178833007813,12.643354140625,8.261178833007813,18.005594140625C8.261178833007813,23.367794140625,12.623538833007814,27.730194140625,17.98582883300781,27.730194140625C23.348028833007813,27.730194140625,27.710428833007814,23.367794140625,27.710428833007814,18.005594140625C27.710428833007814,12.643354140625,23.348028833007813,8.280984140625,17.98582883300781,8.280984140625Z" fill="#EAF2FF" fill-opacity="0.800000011920929"/></g><g><path d="M15.256288344726563,15.391599931640625L12.389682544726563,23.276179931640627C12.314018244726563,23.484079931640625,12.515620344726562,23.685479931640625,12.723569344726563,23.610079931640627L20.608118344726563,20.743689931640624C20.680478344726563,20.717279931640626,20.73760834472656,20.660409931640626,20.764018344726562,20.587789931640625L23.630328344726564,12.703238931640625C23.706028344726562,12.495289931640626,23.504428344726563,12.293942631640626,23.296428344726564,12.369352831640626L15.411928344726562,15.235699931640625C15.339568344726562,15.262109931640625,15.282438344726563,15.319239931640626,15.256288344726563,15.391599931640625ZM16.259468344726564,17.388059931640626L18.611658344726564,19.740249931640626L14.915798344726563,21.083919931640626L16.259468344726564,17.388059931640626ZM19.76057834472656,18.591329931640626L17.408398344726564,16.239139931640626L21.104248344726564,14.895469931640624L19.76057834472656,18.591329931640626Z" fill="#EAF2FF" fill-opacity="0.800000011920929"/></g></g></g></svg>