<svg xmlns="http://www.w3.org/2000/svg" xmlns:xlink="http://www.w3.org/1999/xlink" fill="none" version="1.1" width="18.5" height="18.5" viewBox="0 0 18.5 18.5"><g><path d="M0,6.5L0,1Q0,0.901509,0.0192147,0.80491Q0.0384294,0.708311,0.0761205,0.617316Q0.113811,0.526322,0.16853,0.44443Q0.223249,0.362537,0.292893,0.292893Q0.362537,0.223249,0.44443,0.16853Q0.526322,0.113811,0.617316,0.0761205Q0.708311,0.0384294,0.80491,0.0192147Q0.901509,0,1,0L6.5,0Q6.59849,0,6.69509,0.0192147Q6.79169,0.0384294,6.88268,0.0761205Q6.97368,0.113811,7.05557,0.16853Q7.13746,0.223249,7.20711,0.292893Q7.27675,0.362537,7.33147,0.44443Q7.38619,0.526322,7.42388,0.617316Q7.46157,0.708311,7.48078,0.80491Q7.5,0.901509,7.5,1Q7.5,1.09849,7.48078,1.19509Q7.46157,1.29169,7.42388,1.38268Q7.38619,1.47368,7.33147,1.55557Q7.27675,1.63746,7.20711,1.70711Q7.13746,1.77675,7.05557,1.83147Q6.97368,1.88619,6.88268,1.92388Q6.79169,1.96157,6.69509,1.98079Q6.59849,2,6.5,2L2,2L2,6.5Q2,6.59849,1.98079,6.69509Q1.96157,6.79169,1.92388,6.88268Q1.88619,6.97368,1.83147,7.05557Q1.77675,7.13746,1.70711,7.20711Q1.63746,7.27675,1.55557,7.33147Q1.47368,7.38619,1.38268,7.42388Q1.29169,7.46157,1.19509,7.48078Q1.09849,7.5,1,7.5Q0.901509,7.5,0.80491,7.48078Q0.708311,7.46157,0.617316,7.42388Q0.526322,7.38619,0.44443,7.33147Q0.362537,7.27675,0.292893,7.20711Q0.223249,7.13746,0.16853,7.05557Q0.113811,6.97368,0.0761205,6.88268Q0.0384294,6.79169,0.0192147,6.69509Q0,6.59849,0,6.5ZM15.0858,2L10.835,6.25085L10.8346,6.25123Q10.6939,6.39188,10.6178,6.57565Q10.5417,6.75942,10.5417,6.95833Q10.5417,7.15725,10.6178,7.34102Q10.6939,7.52479,10.8346,7.66544Q10.9752,7.80609,11.159,7.88221Q11.3428,7.95833,11.5417,7.95833Q11.7406,7.95833,11.9244,7.88221Q12.1081,7.80609,12.2488,7.66544L12.2492,7.66507L16.5,3.41423L16.5,6.5Q16.5,6.59849,16.5192,6.69509Q16.5384,6.79169,16.5761,6.88268Q16.6138,6.97368,16.6685,7.05557Q16.7232,7.13746,16.7929,7.20711Q16.8625,7.27675,16.9444,7.33147Q17.0263,7.38619,17.1173,7.42388Q17.2083,7.46157,17.3049,7.48078Q17.4015,7.5,17.5,7.5Q17.5985,7.5,17.6951,7.48078Q17.7917,7.46157,17.8827,7.42388Q17.9737,7.38619,18.0556,7.33147Q18.1375,7.27675,18.2071,7.20711Q18.2767,7.13746,18.3315,7.05557Q18.3862,6.97368,18.4239,6.88268Q18.4616,6.79169,18.4808,6.69509Q18.5,6.59849,18.5,6.5L18.5,1Q18.5,0.801091,18.4239,0.617323Q18.3478,0.433555,18.2071,0.292903L18.2066,0.292321Q18.2025,0.28832,18.1985,0.284365L18.1979,0.2838Q18.0579,0.147326,17.8767,0.0736631Q17.6956,0,17.5,0L12,0Q11.9015,0,11.8049,0.0192147Q11.7083,0.0384294,11.6173,0.0761205Q11.5263,0.113811,11.4444,0.16853Q11.3625,0.223249,11.2929,0.292893Q11.2232,0.362537,11.1685,0.44443Q11.1138,0.526322,11.0761,0.617316Q11.0384,0.708311,11.0192,0.80491Q11,0.901509,11,1Q11,1.09849,11.0192,1.19509Q11.0384,1.29169,11.0761,1.38268Q11.1138,1.47368,11.1685,1.55557Q11.2232,1.63746,11.2929,1.70711Q11.3625,1.77675,11.4444,1.83147Q11.5263,1.88619,11.6173,1.92388Q11.7083,1.96157,11.8049,1.98079Q11.9015,2,12,2L15.0858,2ZM7.66544,12.2486L7.66507,12.249L3.41405,16.5L6.5,16.5Q6.59849,16.5,6.69509,16.5192Q6.79169,16.5384,6.88268,16.5761Q6.97368,16.6138,7.05557,16.6685Q7.13746,16.7232,7.20711,16.7929Q7.27675,16.8625,7.33147,16.9444Q7.38619,17.0263,7.42388,17.1173Q7.46157,17.2083,7.48078,17.3049Q7.5,17.4015,7.5,17.5Q7.5,17.5985,7.48078,17.6951Q7.46157,17.7917,7.42388,17.8827Q7.38619,17.9737,7.33147,18.0556Q7.27675,18.1375,7.20711,18.2071Q7.13746,18.2767,7.05557,18.3315Q6.97368,18.3862,6.88268,18.4239Q6.79169,18.4616,6.69509,18.4808Q6.59849,18.5,6.5,18.5L1,18.5Q0.901509,18.5,0.80491,18.4808Q0.708311,18.4616,0.617316,18.4239Q0.526322,18.3862,0.44443,18.3315Q0.362537,18.2767,0.292893,18.2071Q0.223249,18.1375,0.16853,18.0556Q0.113811,17.9737,0.0761205,17.8827Q0.0384294,17.7917,0.0192147,17.6951Q0,17.5985,0,17.5L0,12Q0,11.9015,0.0192147,11.8049Q0.0384294,11.7083,0.0761205,11.6173Q0.113811,11.5263,0.16853,11.4444Q0.223249,11.3625,0.292893,11.2929Q0.362537,11.2232,0.44443,11.1685Q0.526322,11.1138,0.617316,11.0761Q0.708311,11.0384,0.80491,11.0192Q0.901509,11,1,11Q1.09849,11,1.19509,11.0192Q1.29169,11.0384,1.38268,11.0761Q1.47368,11.1138,1.55557,11.1685Q1.63746,11.2232,1.70711,11.2929Q1.77675,11.3625,1.83147,11.4444Q1.88619,11.5263,1.92388,11.6173Q1.96157,11.7083,1.98079,11.8049Q2,11.9015,2,12L2,15.0856L6.25085,10.8348L6.25123,10.8344Q6.39188,10.6937,6.57565,10.6176Q6.75942,10.5415,6.95833,10.5415Q7.15388,10.5415,7.33503,10.6152Q7.51617,10.6888,7.65623,10.8253L7.65681,10.8259Q7.66086,10.8298,7.66487,10.8338L7.66544,10.8344Q7.80609,10.975,7.88221,11.1588Q7.95833,11.3426,7.95833,11.5415Q7.95833,11.7404,7.88221,11.9242Q7.80609,12.108,7.66544,12.2486ZM18.5,12L18.5,17.5Q18.5,17.5985,18.4808,17.6951Q18.4616,17.7917,18.4239,17.8827Q18.3862,17.9737,18.3315,18.0556Q18.2767,18.1375,18.2071,18.2071Q18.1375,18.2767,18.0556,18.3315Q17.9737,18.3862,17.8827,18.4239Q17.7917,18.4616,17.6951,18.4808Q17.5985,18.5,17.5,18.5L12,18.5Q11.9015,18.5,11.8049,18.4808Q11.7083,18.4616,11.6173,18.4239Q11.5263,18.3862,11.4444,18.3315Q11.3625,18.2767,11.2929,18.2071Q11.2232,18.1375,11.1685,18.0556Q11.1138,17.9737,11.0761,17.8827Q11.0384,17.7917,11.0192,17.6951Q11,17.5985,11,17.5Q11,17.4015,11.0192,17.3049Q11.0384,17.2083,11.0761,17.1173Q11.1138,17.0263,11.1685,16.9444Q11.2232,16.8625,11.2929,16.7929Q11.3625,16.7232,11.4444,16.6685Q11.5263,16.6138,11.6173,16.5761Q11.7083,16.5384,11.8049,16.5192Q11.9015,16.5,12,16.5L16.5,16.5L16.5,12Q16.5,11.9015,16.5192,11.8049Q16.5384,11.7083,16.5761,11.6173Q16.6138,11.5263,16.6685,11.4444Q16.7232,11.3625,16.7929,11.2929Q16.8625,11.2232,16.9444,11.1685Q17.0263,11.1138,17.1173,11.0761Q17.2083,11.0384,17.3049,11.0192Q17.4015,11,17.5,11Q17.5985,11,17.6951,11.0192Q17.7917,11.0384,17.8827,11.0761Q17.9737,11.1138,18.0556,11.1685Q18.1375,11.2232,18.2071,11.2929Q18.2767,11.3625,18.3315,11.4444Q18.3862,11.5263,18.4239,11.6173Q18.4616,11.7083,18.4808,11.8049Q18.5,11.9015,18.5,12Z" fill-rule="evenodd" fill="#EAF2FF" fill-opacity="0.800000011920929"/></g></svg>