<svg xmlns="http://www.w3.org/2000/svg" xmlns:xlink="http://www.w3.org/1999/xlink" fill="none" version="1.1" width="20.484525680541992" height="20.451932907104492" viewBox="0 0 20.484525680541992 20.451932907104492"><g><path d="M7.905,1.80304C8.369,0.321037,9.175,-0.311963,10.765,0.147037L10.805,0.160037C11.27,0.303037,11.805,0.575037,12.307,1.03104C13.097,1.75104,13.567,2.74904,13.567,4.00304C13.567,5.12304,13.502,5.81504,13.312,6.60004L13.306,6.62204L17.419,6.62204C19.933,6.62204,20.932,8.31804,20.3,11.138L20.246,11.369L20.118,11.791L19.635,13.364L19.409,14.083L19.194,14.755L18.794,15.965L18.521,16.753L18.352,17.223L18.118,17.841L17.975,18.198C17.283,19.868,15.855,20.635,13.988,20.415L4.915,19.74C4.85735,19.737,4.79969,19.7343,4.742,19.732L4.382,19.724L3.361,19.724L3.068,19.719L2.834,19.709L2.639,19.691L2.552,19.678L2.385,19.645L2.115,19.574C0.724,19.161,0,17.982,0,16.302L0,9.65704C0,7.53504,1.288,6.32404,3.482,6.32404L5.258,6.32304L5.38,6.23004C6.07425,5.65737,6.64944,4.9541,7.073,4.16004L7.216,3.88004C7.359,3.58604,7.476,3.27804,7.587,2.91904L7.605,2.85804L7.905,1.80304ZM9.983,1.99204C9.94,1.98204,9.921,1.99604,9.9,2.05704L9.809,2.40704L9.559,3.30804L9.499,3.50804C9.37089,3.93524,9.20973,4.35183,9.017,4.75404C8.58389,5.64153,8.00902,6.45249,7.315,7.15504C6.96291,7.52011,6.57608,7.85,6.16,8.14004L6.289,8.04804L6.289,17.831L14.18,18.425C15.162,18.54,15.718,18.282,16.06,17.579L16.127,17.433L16.262,17.096L16.485,16.506L16.647,16.054L16.91,15.293L17.099,14.729L17.506,13.469L17.956,12.031L18.318,10.839C18.763,9.05604,18.501,8.62204,17.419,8.62204L12.317,8.62204C11.4531,8.62255,10.8462,7.77164,11.128,6.95504L11.179,6.80504L11.257,6.54904C11.498,5.71104,11.567,5.16304,11.567,4.00304C11.567,2.86804,10.937,2.29304,10.23,2.07504L10.143,2.04804L9.983,1.99204ZM4.289,8.32304L3.483,8.32304C2.367,8.32304,2.001,8.66804,2.001,9.65704L2.001,16.302C2.001,17.193,2.234,17.552,2.793,17.685L2.828,17.693L2.916,17.706L3.036,17.716L3.307,17.722L3.977,17.722L4.289,17.724L4.289,8.32404L4.289,8.32304Z" fill="#EAF2FF" fill-opacity="0.800000011920929"/></g></svg>