<svg xmlns="http://www.w3.org/2000/svg" xmlns:xlink="http://www.w3.org/1999/xlink" fill="none" version="1.1" width="22" height="22" viewBox="0 0 22 22"><defs><clipPath id="master_svg0_60_11968"><rect x="0" y="0" width="22" height="22" rx="0"/></clipPath></defs><g clip-path="url(#master_svg0_60_11968)"><g><rect x="0" y="0" width="22" height="22" rx="0" fill="#FFFFFF" fill-opacity="0"/></g><g><path d="M13.666628247070312,20.16661298828125Q13.666628247070312,20.26511298828125,13.685828247070312,20.36171298828125Q13.705128247070313,20.45831298828125,13.742828247070312,20.54931298828125Q13.780428247070313,20.64031298828125,13.835228247070312,20.72221298828125Q13.889928247070312,20.80411298828125,13.959528247070313,20.87371298828125Q14.029228247070312,20.94341298828125,14.111128247070312,20.99811298828125Q14.193028247070313,21.05281298828125,14.283928247070312,21.09051298828125Q14.374928247070313,21.12821298828125,14.471528247070312,21.14741298828125Q14.568128247070312,21.16661298828125,14.666628247070312,21.16661298828125L20.166628247070314,21.16661298828125Q20.26512824707031,21.16661298828125,20.361728247070314,21.14741298828125Q20.458328247070312,21.12821298828125,20.549328247070314,21.09051298828125Q20.64032824707031,21.05281298828125,20.722228247070312,20.99811298828125Q20.804128247070313,20.94341298828125,20.873728247070314,20.87371298828125Q20.94342824707031,20.80411298828125,20.998128247070312,20.72221298828125Q21.052828247070313,20.64031298828125,21.090528247070313,20.54931298828125Q21.12822824707031,20.45831298828125,21.147428247070312,20.36171298828125Q21.166628247070314,20.26511298828125,21.166628247070314,20.16661298828125L21.166628247070314,9.16664298828125Q21.166628247070314,9.05417298828125,21.14162824707031,8.94450298828125Q21.116728247070313,8.83483298828125,21.067928247070313,8.73346298828125Q21.019228247070313,8.632082988281251,20.949228247070312,8.54406298828125Q20.879228247070312,8.45604298828125,20.79132824707031,8.38577298828125L11.624688247070312,1.05244398828125Q11.558678247070313,0.99962998828125,11.484728247070313,0.95864998828125Q11.410778247070313,0.91766898828125,11.330998247070312,0.88968498828125Q11.251228247070312,0.86169998828125,11.167878247070313,0.84750698828125Q11.084538247070313,0.83331298828125,10.999998247070312,0.83331298828125Q10.915448247070312,0.83331298828125,10.832108247070313,0.84750698828125Q10.748768247070313,0.86169998828125,10.668988247070313,0.88968498828125Q10.589208247070312,0.91766898828125,10.515268247070313,0.95864998828125Q10.441318247070312,0.99962998828125,10.375298247070312,1.05244398828125L1.2086332470703125,8.38577298828125Q1.1208032470703126,8.45604298828125,1.0507762470703126,8.54406298828125Q0.9807492470703125,8.632082988281251,0.9320252470703125,8.73345298828125Q0.8833012470703125,8.83483298828125,0.8583142470703125,8.94450298828125Q0.8333282470703125,9.05417298828125,0.8333282470703125,9.16664298828125L0.8333282470703125,20.16661298828125Q0.8333282470703125,20.26511298828125,0.8525432470703125,20.36171298828125Q0.8717582470703125,20.45831298828125,0.9094492470703125,20.54931298828125Q0.9471402470703125,20.64031298828125,1.0018582470703126,20.72221298828125Q1.0565772470703125,20.80411298828125,1.1262212470703123,20.87371298828125Q1.1958652470703126,20.94341298828125,1.2777582470703126,20.99811298828125Q1.3596502470703125,21.05281298828125,1.4506452470703124,21.09051298828125Q1.5416392470703126,21.12821298828125,1.6382382470703125,21.14741298828125Q1.7348368470703126,21.16661298828125,1.8333282470703125,21.16661298828125L7.3333282470703125,21.16661298828125Q7.4318182470703125,21.16661298828125,7.528418247070313,21.14741298828125Q7.6250182470703125,21.12821298828125,7.716008247070312,21.09051298828125Q7.807008247070312,21.05281298828125,7.888898247070313,20.99811298828125Q7.970788247070312,20.94341298828125,8.040438247070313,20.87371298828125Q8.110078247070312,20.80411298828125,8.164798247070312,20.72221298828125Q8.219518247070312,20.64031298828125,8.257208247070313,20.54931298828125Q8.294898247070313,20.45831298828125,8.314108247070312,20.36171298828125Q8.333328247070312,20.26511298828125,8.333328247070312,20.16661298828125L8.333328247070312,12.91661298828125L13.666628247070312,12.91661298828125L13.666628247070312,20.16661298828125ZM15.666628247070312,19.16661298828125L15.666628247070312,11.91661298828125Q15.666628247070312,11.81815298828125,15.647428247070312,11.72155298828125Q15.628228247070313,11.62495298828125,15.590528247070312,11.53396298828125Q15.552828247070313,11.44297298828125,15.498128247070312,11.36107298828125Q15.443428247070312,11.27918298828125,15.373728247070312,11.20954298828125Q15.304128247070313,11.13989298828125,15.222228247070312,11.08517298828125Q15.140328247070313,11.03046298828125,15.049328247070312,10.99276298828125Q14.958328247070312,10.95507298828125,14.861728247070312,10.93586298828125Q14.765128247070313,10.91664298828125,14.666628247070312,10.91664298828125L7.3333282470703125,10.91664298828125Q7.2348382470703125,10.91664298828125,7.138238247070312,10.93586298828125Q7.0416382470703125,10.95507298828125,6.950648247070313,10.99276298828125Q6.859648247070313,11.03045298828125,6.777758247070312,11.08517298828125Q6.695868247070313,11.13989298828125,6.626218247070312,11.20954298828125Q6.556578247070313,11.27918298828125,6.501858247070312,11.36107298828125Q6.4471382470703125,11.44297298828125,6.409448247070313,11.53396298828125Q6.3717582470703125,11.62495298828125,6.352538247070313,11.72155298828125Q6.3333282470703125,11.81815298828125,6.3333282470703125,11.91661298828125L6.3333282470703125,19.16661298828125L2.8333282470703125,19.16661298828125L2.8333282470703125,9.64727298828125L10.999998247070312,3.11393298828125L19.166628247070314,9.64727298828125L19.166628247070314,19.16661298828125L15.666628247070312,19.16661298828125Z" fill-rule="evenodd" fill="#EAF2FF" fill-opacity="0.800000011920929"/></g><g><path d="M12,20.16664298828125L12,15.58331298828125Q12,15.48482158828125,11.980785000000001,15.38822298828125Q11.96157,15.29162398828125,11.923879,15.20062998828125Q11.886188,15.10963498828125,11.83147,15.02774298828125Q11.776751,14.94584998828125,11.707107,14.87620598828125Q11.637463,14.80656198828125,11.55557,14.75184298828125Q11.473678,14.69712498828125,11.382683,14.65943398828125Q11.291689,14.62174298828125,11.19509,14.602527988281249Q11.0984914,14.58331298828125,11,14.58331298828125Q10.9015086,14.58331298828125,10.80491,14.602527988281249Q10.708311,14.62174298828125,10.617317,14.65943398828125Q10.526322,14.69712498828125,10.44443,14.75184298828125Q10.362537,14.80656198828125,10.292893,14.87620598828125Q10.223249,14.94584998828125,10.16853,15.02774298828125Q10.113812,15.10963498828125,10.076121,15.20062998828125Q10.03843,15.29162398828125,10.019214999999999,15.38822298828125Q10,15.48482158828125,10,15.58331298828125L10,20.16664298828125Q10,20.265132988281252,10.019214999999999,20.36173298828125Q10.03843,20.45833298828125,10.076121,20.54933298828125Q10.113812,20.64032298828125,10.16853,20.72221298828125Q10.223249,20.80411298828125,10.292893,20.87375298828125Q10.362537,20.94339298828125,10.44443,20.99811298828125Q10.526322,21.05283298828125,10.617317,21.09052298828125Q10.708311,21.12821298828125,10.80491,21.14743298828125Q10.9015086,21.16664298828125,11,21.16664298828125Q11.0984914,21.16664298828125,11.19509,21.14743298828125Q11.291689,21.12821298828125,11.382683,21.09052298828125Q11.473678,21.05283298828125,11.55557,20.99811298828125Q11.637463,20.94339298828125,11.707107,20.87375298828125Q11.776751,20.80411298828125,11.83147,20.72221298828125Q11.886188,20.64032298828125,11.923879,20.54933298828125Q11.96157,20.45833298828125,11.980785000000001,20.36173298828125Q12,20.265132988281252,12,20.16664298828125Z" fill-rule="evenodd" fill="#EAF2FF" fill-opacity="0.800000011920929"/></g></g></svg>