<svg xmlns="http://www.w3.org/2000/svg" xmlns:xlink="http://www.w3.org/1999/xlink" fill="none" version="1.1" width="24" height="24" viewBox="0 0 24 24"><defs><clipPath id="master_svg0_60_11947"><rect x="0" y="0" width="24" height="24" rx="0"/></clipPath></defs><g clip-path="url(#master_svg0_60_11947)"><g><rect x="0" y="0" width="24" height="24" rx="0" fill="#FFFFFF" fill-opacity="0"/></g><g><path d="M12.3267,4.054886Q12.168,4,12,4Q11.83202,4,11.67326,4.054886L1.67326,7.51204Q1.485265,7.577030000000001,1.336452,7.709020000000001Q1.187639,7.841,1.100663,8.01989Q1.013687,8.19878,1.00179,8.39734Q0.9898899999999999,8.5959,1.054886,8.78389Q1.091695,8.89036,1.15127,8.98598Q1.210845,9.08159,1.2901989999999999,9.16155Q1.369554,9.24151,1.46471,9.30182Q1.559866,9.36212,1.666054,9.399740000000001L11.66605,12.94259Q11.82809,13,12,13Q12.1719,13,12.3339,12.94259L22.3339,9.399740000000001Q22.5214,9.33332,22.6692,9.200199999999999Q22.817,9.06708,22.9027,8.88753Q22.9883,8.70798,22.9986,8.50934Q23.009,8.3107,22.9426,8.1232Q22.905,8.01702,22.8447,7.921860000000001Q22.7844,7.826700000000001,22.7044,7.74735Q22.6244,7.66799,22.5288,7.608420000000001Q22.4332,7.54884,22.3267,7.51204L12.3267,4.054886ZM12,6.05807L5.02711,8.46871L12,10.9391L18.9729,8.46871L12,6.05807Z" fill-rule="evenodd" fill="#EAF2FF" fill-opacity="0.800000011920929"/></g><g><path d="M12.3304,16.94386L22.3304,13.443858Q22.5181,13.378148,22.6664,13.245592Q22.8147,13.113036,22.901,12.933815Q23,12.728204,23,12.5Q23,12.49073302,22.9998,12.4814676Q22.9969,12.321069,22.9439,12.16965Q22.9183,12.096703,22.8819,12.028545Q22.8455,11.960387,22.799,11.898638Q22.7525,11.836888,22.6971,11.783013Q22.6417,11.729138,22.5786,11.684417Q22.5156,11.639697,22.4465,11.605192Q22.3773,11.570688,22.3037,11.547219Q22.23,11.523751,22.1537,11.511875Q22.0773,11.5,22,11.5L21.9909,11.500041Q21.8256,11.501545,21.6696,11.556142L12,14.94052L2.33035,11.556142Q2.169946,11.5,2.0000000000000004,11.5Q1.9798552,11.5,1.9597267,11.500811Q1.885034,11.503822,1.811619,11.517904Q1.738203,11.531986,1.6676980000000001,11.556827Q1.597192,11.581668,1.531163,11.616715Q1.465135,11.651762,1.4050500000000001,11.696237Q1.3449659999999999,11.740712,1.292162,11.793625Q1.239358,11.846538,1.195008,11.906714000000001Q1.150658,11.966891,1.115747,12.032992Q1.080837,12.099093,1.056142,12.16965Q1,12.330054,1,12.5Q1,12.5201448,1.0008110000000001,12.5402733Q1.003822,12.614966,1.0179040000000001,12.688381Q1.0319859999999998,12.761797,1.056827,12.832302Q1.081668,12.902808,1.1167150000000001,12.968837Q1.151762,13.034865,1.196237,13.09495Q1.240712,13.155034,1.293625,13.207838Q1.346538,13.260642,1.406714,13.304992Q1.466891,13.349342,1.5329920000000001,13.384253Q1.5990929999999999,13.419163,1.66965,13.443858L11.66965,16.94386Q11.83005,17,12,17Q12.1699,17,12.3304,16.94386Z" fill-rule="evenodd" fill="#EAF2FF" fill-opacity="0.800000011920929"/></g><g><path d="M12.3304,20.94379896484375L22.3304,17.44379696484375Q22.5181,17.37808696484375,22.6664,17.24553096484375Q22.8147,17.11297496484375,22.901,16.93375396484375Q23,16.72814296484375,23,16.49993896484375Q23,16.49067198484375,22.9998,16.48140656484375Q22.9969,16.32100796484375,22.9439,16.16958896484375Q22.9183,16.09664196484375,22.8819,16.02848396484375Q22.8455,15.96032596484375,22.799,15.89857696484375Q22.7525,15.83682696484375,22.6971,15.78295196484375Q22.6417,15.72907696484375,22.5786,15.68435596484375Q22.5156,15.63963596484375,22.4465,15.60513096484375Q22.3773,15.57062696484375,22.3037,15.54715796484375Q22.23,15.52368996484375,22.1537,15.51181396484375Q22.0773,15.49993896484375,22,15.49993896484375L21.9909,15.49997996484375Q21.8256,15.50148396484375,21.6696,15.55608096484375L12,18.94045896484375L2.33035,15.55608096484375Q2.169946,15.49993896484375,2.0000000000000004,15.49993896484375Q1.9798552,15.49993896484375,1.9597267,15.50074996484375Q1.885034,15.50376096484375,1.811619,15.51784296484375Q1.738203,15.53192496484375,1.6676980000000001,15.55676596484375Q1.597192,15.58160696484375,1.531163,15.61665396484375Q1.465135,15.65170096484375,1.4050500000000001,15.69617596484375Q1.3449659999999999,15.74065096484375,1.292162,15.79356396484375Q1.239358,15.84647696484375,1.195008,15.906652964843751Q1.150658,15.96682996484375,1.115747,16.03293096484375Q1.080837,16.09903196484375,1.056142,16.16958896484375Q1,16.32999296484375,1,16.49993896484375Q1,16.52008376484375,1.0008110000000001,16.54021226484375Q1.003822,16.61490496484375,1.0179040000000001,16.68831996484375Q1.0319859999999998,16.76173596484375,1.056827,16.83224096484375Q1.081668,16.90274696484375,1.1167150000000001,16.96877596484375Q1.151762,17.03480396484375,1.196237,17.09488896484375Q1.240712,17.15497296484375,1.293625,17.20777696484375Q1.346538,17.26058096484375,1.406714,17.30493096484375Q1.466891,17.34928096484375,1.5329920000000001,17.38419196484375Q1.5990929999999999,17.41910196484375,1.66965,17.44379696484375L11.66965,20.94379896484375Q11.83005,20.99993896484375,12,20.99993896484375Q12.1699,20.99993896484375,12.3304,20.94379896484375Z" fill-rule="evenodd" fill="#EAF2FF" fill-opacity="0.800000011920929"/></g></g></svg>