<svg xmlns="http://www.w3.org/2000/svg" xmlns:xlink="http://www.w3.org/1999/xlink" fill="none" version="1.1" width="22" height="22" viewBox="0 0 22 22"><defs><clipPath id="master_svg0_70_06584"><rect x="0" y="0" width="22" height="22" rx="0"/></clipPath></defs><g clip-path="url(#master_svg0_70_06584)"><g><rect x="0" y="0" width="22" height="22" rx="0" fill="#FFFFFF" fill-opacity="0"/></g><g><path d="M1.6326938764648438,14.9576740234375Q2.404459876464844,16.782274023437502,3.8110758764648436,18.1889740234375Q5.2177258764648435,19.5955740234375,7.042385876464844,20.3673740234375Q8.932275876464843,21.1666740234375,11.000005876464844,21.1666740234375Q13.067735876464845,21.1666740234375,14.957635876464844,20.3673740234375Q16.782235876464846,19.5955740234375,18.188935876464843,18.1889740234375Q19.595535876464844,16.782274023437502,20.367335876464843,14.9576740234375Q21.166635876464845,13.0677740234375,21.166635876464845,11.0000440234375Q21.166635876464845,8.9323240234375,20.367335876464843,7.0424240234375Q19.595535876464844,5.2177640234375,18.188935876464843,3.8111240234375Q16.782235876464846,2.4045000234375,14.957635876464844,1.6327320234375Q13.067735876464845,0.8333740234375,11.000005876464844,0.8333740234375Q8.932285876464844,0.8333740234375,7.042385876464844,1.6327320234375Q5.2177258764648435,2.4044980234375,3.8110858764648436,3.8111140234375Q2.404458876464844,5.2177640234375,1.6326938764648438,7.0424240234375Q0.8333358764648438,8.9323240234375,0.8333358764648438,11.0000440234375Q0.8333358764648438,13.0677740234375,1.6326938764648438,14.9576740234375ZM11.000005876464844,19.1666740234375Q7.617295876464844,19.1666740234375,5.225285876464843,16.7747740234375Q2.8333358764648438,14.3827740234375,2.8333358764648438,11.0000440234375Q2.8333358764648438,7.6173340234375,5.225285876464843,5.225344023437501Q7.617295876464844,2.8333740234375,11.000005876464844,2.8333740234375Q14.382735876464844,2.8333740234375,16.774735876464845,5.2253240234375Q19.166635876464845,7.6173440234375,19.166635876464845,11.0000440234375Q19.166635876464845,14.3827740234375,16.774735876464845,16.7747740234375Q14.382735876464844,19.1666740234375,11.000005876464844,19.1666740234375Z" fill-rule="evenodd" fill="#EAF2FF" fill-opacity="0.800000011920929"/></g><g><path d="M8.348351,5.884728353125Q7.25,6.983076953125,7.25,8.536376953125Q7.25,8.634866953125,7.269215,8.731466953125Q7.28843,8.828066953125,7.326121,8.919056953125Q7.363812,9.010056953125,7.41853,9.091946953125Q7.473249,9.173836953125,7.542893,9.243486953125Q7.612537,9.313126953125,7.69443,9.367846953125Q7.776322,9.422566953125,7.867317,9.460256953125Q7.958311,9.497946953125,8.05491,9.517166953124999Q8.1515086,9.536376953125,8.25,9.536376953125Q8.3484914,9.536376953125,8.44509,9.517166953124999Q8.541689,9.497946953125,8.632683,9.460256953125Q8.723678,9.422566953125,8.80557,9.367846953125Q8.887463,9.313126953125,8.957107,9.243486953125Q9.026751,9.173836953125,9.08147,9.091946953125Q9.136188,9.010056953125,9.173879,8.919056953125Q9.21157,8.828066953125,9.230785000000001,8.731466953125Q9.25,8.634866953125,9.25,8.536376953125Q9.25,7.811506953125,9.76256,7.298936953125Q10.27513,6.786376953125,11,6.786376953125Q11.72487,6.786376953125,12.23744,7.298936953125Q12.75,7.811506953125,12.75,8.536376953125Q12.75,9.261246953125,12.23744,9.773816953125Q11.72487,10.286376953125,11,10.286376953125Q10.90151,10.286376953125,10.80491,10.305586953125001Q10.70831,10.324806953125,10.61732,10.362496953125Q10.52632,10.400186953125,10.44443,10.454906953125Q10.36254,10.509626953125,10.29289,10.579266953125Q10.22325,10.648916953125,10.16853,10.730806953125Q10.11381,10.812696953125,10.07612,10.903696953125Q10.03843,10.994686953125,10.01921,11.091286953125Q10,11.187886953125,10,11.286376953125L10,13.119706953125Q10,13.211456953125001,10.01669,13.301676953125Q10.03252,13.387176953125,10.06286,13.468666953125Q10.09321,13.550156953125,10.13716,13.625186953124999Q10.18112,13.700216953125,10.23736,13.766536953125Q10.293610000000001,13.832846953125,10.36045,13.888466953125Q10.427299999999999,13.944076953125,10.502749999999999,13.987316953125Q10.57819,14.030556953125,10.65997,14.060126953125Q10.74174,14.089696953125,10.82739,14.104696953125Q10.91304,14.119706953125,11,14.119706953125Q11.09849,14.119706953125,11.19509,14.100496953125Q11.29169,14.081276953125,11.38268,14.043586953125Q11.47368,14.005896953125,11.55557,13.951176953125Q11.63746,13.896456953125,11.70711,13.826816953125Q11.77675,13.757176953125,11.83147,13.675276953125Q11.88619,13.593386953125,11.92388,13.502396953125Q11.96157,13.411396953125,11.98078,13.314796953125Q12,13.218196953125,12,13.119706953125L12,12.160376953124999Q12.9253,11.914366953125,13.65165,11.188026953125Q14.75,10.089676953125,14.75,8.536376953125Q14.75,6.983076953125,13.65165,5.884728153125Q12.5533,4.786376953125,11,4.786376953125Q9.4467,4.786376953125,8.348351,5.884728353125Z" fill-rule="evenodd" fill="#EAF2FF" fill-opacity="0.800000011920929"/></g><g><path d="M12.145834123535156,16.0988329296875Q12.145834123535156,16.1551229296875,12.140314123535155,16.2111429296875Q12.134794123535157,16.2671629296875,12.123814123535157,16.3223729296875Q12.112834123535157,16.3775829296875,12.096494123535155,16.4314529296875Q12.080154123535156,16.4853229296875,12.058604123535156,16.537322929687498Q12.037064123535156,16.5893329296875,12.010534123535155,16.6389829296875Q11.983994123535156,16.6886229296875,11.952724123535155,16.7354229296875Q11.921454123535156,16.7822329296875,11.885734123535157,16.8257429296875Q11.850024123535157,16.8692629296875,11.810224123535157,16.9090629296875Q11.770424123535156,16.9488629296875,11.726904123535157,16.9845729296875Q11.683394123535155,17.0202929296875,11.636584123535156,17.0515629296875Q11.589784123535157,17.0828329296875,11.540144123535157,17.1093729296875Q11.490494123535157,17.1359029296875,11.438484123535156,17.157442929687498Q11.386484123535157,17.1789929296875,11.332614123535157,17.1953329296875Q11.278744123535157,17.2116729296875,11.223534123535156,17.2226529296875Q11.168324123535156,17.2336329296875,11.112304123535157,17.2391529296875Q11.056284123535157,17.2446729296875,10.999994123535156,17.2446729296875Q10.943704123535156,17.2446729296875,10.887684123535156,17.2391529296875Q10.831666123535156,17.2336329296875,10.776456123535157,17.2226529296875Q10.721247123535157,17.2116729296875,10.667379123535156,17.1953329296875Q10.613512123535155,17.1789929296875,10.561506123535157,17.157442929687498Q10.509500123535156,17.1359029296875,10.459855123535156,17.1093729296875Q10.410211123535156,17.0828329296875,10.363406123535157,17.0515629296875Q10.316602123535157,17.0202929296875,10.273088123535157,16.9845729296875Q10.229575123535156,16.9488629296875,10.189771123535156,16.9090629296875Q10.149967123535156,16.8692629296875,10.114256123535156,16.8257429296875Q10.078545123535156,16.7822329296875,10.047272123535157,16.7354229296875Q10.015998123535157,16.6886229296875,9.989463123535156,16.6389829296875Q9.962927123535156,16.5893329296875,9.941385523535157,16.537322929687498Q9.919843823535157,16.4853229296875,9.903503323535157,16.4314529296875Q9.887162823535157,16.3775829296875,9.876181023535157,16.3223729296875Q9.865199123535156,16.2671629296875,9.859681623535156,16.2111429296875Q9.854164123535156,16.1551229296875,9.854164123535156,16.0988329296875Q9.854164123535156,16.0425429296875,9.859681623535156,15.9865229296875Q9.865199123535156,15.9305049296875,9.876181023535157,15.8752949296875Q9.887162823535157,15.820085929687501,9.903503323535157,15.7662179296875Q9.919843823535157,15.7123509296875,9.941385523535157,15.6603449296875Q9.962927123535156,15.6083389296875,9.989463123535156,15.5586939296875Q10.015998123535157,15.5090499296875,10.047272123535157,15.4622449296875Q10.078545123535156,15.4154409296875,10.114256123535156,15.3719269296875Q10.149967123535156,15.3284139296875,10.189771123535156,15.2886099296875Q10.229575123535156,15.2488059296875,10.273088123535157,15.2130949296875Q10.316602123535157,15.1773839296875,10.363406123535157,15.1461109296875Q10.410211123535156,15.1148369296875,10.459855123535156,15.0883019296875Q10.509500123535156,15.0617659296875,10.561506123535157,15.0402243296875Q10.613512123535155,15.0186826296875,10.667379123535156,15.0023421296875Q10.721247123535157,14.9860016296875,10.776456123535157,14.9750198296875Q10.831666123535156,14.9640379296875,10.887684123535156,14.9585204296875Q10.943704123535156,14.9530029296875,10.999994123535156,14.9530029296875Q11.056284123535157,14.9530029296875,11.112304123535157,14.9585204296875Q11.168324123535156,14.9640379296875,11.223534123535156,14.9750198296875Q11.278744123535157,14.9860016296875,11.332614123535157,15.0023421296875Q11.386484123535157,15.0186826296875,11.438484123535156,15.0402243296875Q11.490494123535157,15.0617659296875,11.540144123535157,15.0883019296875Q11.589784123535157,15.1148369296875,11.636584123535156,15.1461109296875Q11.683394123535155,15.1773839296875,11.726904123535157,15.2130949296875Q11.770424123535156,15.2488059296875,11.810224123535157,15.2886099296875Q11.850024123535157,15.3284139296875,11.885734123535157,15.3719269296875Q11.921454123535156,15.4154409296875,11.952724123535155,15.4622449296875Q11.983994123535156,15.5090499296875,12.010534123535155,15.5586939296875Q12.037064123535156,15.6083389296875,12.058604123535156,15.6603449296875Q12.080154123535156,15.7123509296875,12.096494123535155,15.7662179296875Q12.112834123535157,15.820085929687501,12.123814123535157,15.8752949296875Q12.134794123535157,15.9305049296875,12.140314123535155,15.9865229296875Q12.145834123535156,16.0425429296875,12.145834123535156,16.0988329296875Z" fill="#EAF2FF" fill-opacity="0.800000011920929"/></g></g></svg>