<svg xmlns="http://www.w3.org/2000/svg" xmlns:xlink="http://www.w3.org/1999/xlink" fill="none" version="1.1" width="24" height="24" viewBox="0 0 24 24"><defs><clipPath id="master_svg0_70_06605"><rect x="0" y="0" width="24" height="24" rx="0"/></clipPath></defs><g clip-path="url(#master_svg0_70_06605)"><g><rect x="0" y="0" width="24" height="24" rx="0" fill="#FFFFFF" fill-opacity="0"/></g><g><path d="M11.030350037597657,4.99999999884209L11.012002037597656,18.9987L11.012001037597656,19Q11.012001037597656,19.023400000000002,11.013093037597656,19.0467Q11.021806037597656,19.233,11.097052037597656,19.4036Q11.172299037597657,19.574199999999998,11.303968037597656,19.706200000000003Q11.444436037597656,19.847,11.628107037597657,19.9234Q11.811778037597657,19.9997,12.010690347597656,20L12.012001037597656,20Q12.103087637597657,20,12.192675037597656,19.9835Q12.278201037597656,19.9678,12.359731037597657,19.9376Q12.441261037597656,19.907400000000003,12.516348037597655,19.863500000000002Q12.591435037597655,19.8196,12.657825037597656,19.7635Q12.724215037597656,19.7073,12.779915037597656,19.6406Q12.835616037597656,19.5738,12.878954037597657,19.4984Q12.922292037597657,19.423000000000002,12.951968037597656,19.3413Q12.981643037597657,19.2595,12.996765037597656,19.1739Q13.011886037597657,19.0883,13.012000037597657,19.0013L13.012001037597656,19L13.030351037597656,5.00131069L13.030351037597656,5Q13.030351037597656,4.9089135,13.013891037597656,4.819326Q12.998183037597656,4.7338000000000005,12.967946037597656,4.65227Q12.937708037597655,4.57074,12.893852037597656,4.495653Q12.849996037597656,4.420566,12.793837037597656,4.354176Q12.737678037597655,4.287786,12.670903037597656,4.232086Q12.604128037597656,4.176385,12.528741037597657,4.133047Q12.453354037597656,4.089709,12.371617037597657,4.060033Q12.289881037597656,4.030358,12.204249037597656,4.015236Q12.118618037597656,4.000115,12.031661337597656,4.000001L12.030350637597657,4Q11.939264137597656,4,11.849677037597656,4.016457Q11.764151037597657,4.032168,11.682621037597656,4.062405Q11.601091037597657,4.092642,11.526004037597657,4.136499Q11.450917037597657,4.1803550000000005,11.384527037597657,4.236514Q11.318137037597657,4.292672,11.262436037597656,4.359447Q11.206736037597656,4.426223,11.163398037597656,4.50161Q11.120060037597657,4.576997,11.090384037597657,4.658733Q11.060709037597656,4.74047,11.045587037597656,4.826101Q11.030466037597655,4.9117328,11.030351037597656,4.99868931L11.030350037597657,4.99999999884209Z" fill-rule="evenodd" fill="#EAF2FF" fill-opacity="0.800000011920929"/></g><g><path d="M5,13L19,13Q19.0985,13,19.1951,12.980785000000001Q19.2917,12.96157,19.3827,12.923879Q19.4737,12.886188,19.5556,12.83147Q19.6375,12.776751,19.7071,12.707107Q19.776699999999998,12.637463,19.8315,12.55557Q19.886200000000002,12.473678,19.9239,12.382683Q19.9616,12.291689,19.980800000000002,12.19509Q20,12.0984914,20,12Q20,11.9015086,19.980800000000002,11.80491Q19.9616,11.708311,19.9239,11.617317Q19.886200000000002,11.526322,19.8315,11.44443Q19.776699999999998,11.362537,19.7071,11.292893Q19.6375,11.223249,19.5556,11.16853Q19.4737,11.113812,19.3827,11.076121Q19.2917,11.03843,19.1951,11.019214999999999Q19.0985,11,19,11L5,11Q4.9015086,11,4.80491,11.019214999999999Q4.708311,11.03843,4.617317,11.076121Q4.526322,11.113812,4.44443,11.16853Q4.362537,11.223249,4.292893,11.292893Q4.223249,11.362537,4.16853,11.44443Q4.113812,11.526322,4.076121,11.617317Q4.03843,11.708311,4.019215,11.80491Q4,11.9015086,4,12Q4,12.0984914,4.019215,12.19509Q4.03843,12.291689,4.076121,12.382683Q4.113812,12.473678,4.16853,12.55557Q4.223249,12.637463,4.292893,12.707107Q4.362537,12.776751,4.44443,12.83147Q4.526322,12.886188,4.617317,12.923879Q4.708311,12.96157,4.80491,12.980785000000001Q4.9015086,13,5,13Z" fill-rule="evenodd" fill="#EAF2FF" fill-opacity="0.800000011920929"/></g></g></svg>