<svg xmlns="http://www.w3.org/2000/svg" xmlns:xlink="http://www.w3.org/1999/xlink" fill="none" version="1.1" width="22" height="22" viewBox="0 0 22 22"><defs><clipPath id="master_svg0_60_04966"><rect x="0" y="0" width="22" height="22" rx="0"/></clipPath></defs><g clip-path="url(#master_svg0_60_04966)"><g><rect x="0" y="0" width="22" height="22" rx="0" fill="#FFFFFF" fill-opacity="0"/></g><g><path d="M1.083343505939936,11.0000040234375L1.083343505859375,11.0000440234375Q1.083343505859375,13.0170740234375,1.862951505859375,14.8602740234375Q2.486163505859375,16.3336740234375,3.533883505859375,17.5277740234375Q3.560893505859375,17.6785740234375,3.631823505859375,17.8144740234375Q3.702763505859375,17.9502740234375,3.811113505859375,18.0585740234375Q4.025413505859375,18.2728740234375,4.322613505859374,18.3321740234375Q5.573303505859375,19.4745740234375,7.139763505859375,20.1370740234375Q8.982963505859374,20.9166740234375,11.000013505859375,20.9166740234375Q13.017043505859375,20.9166740234375,14.860243505859374,20.1370740234375Q16.426743505859378,19.4745740234375,17.677443505859376,18.3321740234375Q17.974643505859376,18.2729740234375,18.188943505859374,18.0585740234375Q18.297343505859374,17.9502740234375,18.368243505859375,17.8143740234375Q18.439243505859373,17.6785740234375,18.466243505859374,17.5276740234375Q19.513843505859374,16.3336740234375,20.137043505859374,14.8602740234375Q20.916643505859376,13.0170740234375,20.916643505859376,11.0000340234375L20.916643505859376,10.9979240234375Q20.916243505859374,8.9820340234375,20.137043505859374,7.1397940234375Q19.384343505859373,5.3600340234375,18.012143505859374,3.9878940234375Q16.640043505859374,2.6157540234375,14.860243505859374,1.8629830234375Q13.017043505859375,1.0833740234375,11.000003505859375,1.0833740234375Q8.982963505859374,1.0833740234375,7.139763505859375,1.8629820234375Q5.360013505859375,2.6157540234375,3.987863505859375,3.9878940234375Q2.615723505859375,5.3600340234375,1.862952505859375,7.1397940234375Q1.083351430889375,8.9829840234375,1.083343505939936,11.0000040234375ZM2.6127935058593748,11.7499740234375Q2.810583505859375,14.2269740234375,4.336463505859375,16.1538740234375Q5.469733505859375,15.1668740234375,6.847243505859375,14.5508740234375Q6.635963505859375,13.2346740234375,6.593833505859375,11.7499740234375L2.6127935058593748,11.7499740234375ZM6.593833505859375,10.2500040234375L2.6128035058593753,10.2500040234375Q2.820633505859375,7.6474840234375,4.494593505859375,5.6522640234375Q5.577863505859375,6.5971140234375,6.890063505859375,7.1941040234375Q6.640083505859375,8.6206440234375,6.593833505859375,10.2500040234375ZM8.094443505859374,11.7499740234375Q8.130693505859375,12.9549740234375,8.285303505859375,14.0320740234375Q9.602013505859375,13.6666740234375,11.000013505859375,13.6666740234375Q12.398043505859375,13.6666740234375,13.714743505859374,14.0319740234375Q13.869343505859375,12.9548740234375,13.905543505859375,11.7499740234375L8.094443505859374,11.7499740234375ZM13.905543505859375,10.2500040234375L8.094443505859374,10.2500040234375Q8.134923505859376,8.9047440234375,8.322933505859375,7.7188140234375Q9.620833505859375,8.083304023437499,11.000013505859375,8.083304023437499Q12.379143505859375,8.083304023437499,13.677043505859375,7.7188240234375Q13.865143505859375,8.9047440234375,13.905543505859375,10.2500040234375ZM15.406143505859376,11.7499740234375Q15.364043505859375,13.2345740234375,15.152743505859375,14.5508740234375Q16.530343505859374,15.1668740234375,17.663543505859376,16.1537740234375Q19.189443505859376,14.2269740234375,19.387243505859374,11.7499740234375L15.406143505859376,11.7499740234375ZM19.387243505859374,10.2500040234375L15.406143505859376,10.2500040234375Q15.359943505859375,8.620654023437499,15.109943505859375,7.1941240234375Q16.422143505859374,6.5971440234375,17.505443505859375,5.6522940234375Q19.179343505859375,7.6475040234375,19.387243505859374,10.2500040234375ZM16.451943505859376,4.583344023437499Q15.195643505859374,3.4964540234375,13.694643505859375,3.0002440234375003Q14.010443505859374,3.5430940234375,14.289143505859375,4.2396840234374995Q14.569943505859374,4.9419140234375,14.780943505859375,5.7137840234375Q15.664443505859374,5.2645940234375,16.451943505859376,4.583344023437499ZM13.375543505859374,6.2644540234375Q13.173643505859374,5.4899340234375,12.896343505859376,4.7967740234375Q12.442043505859376,3.6609040234375,11.882343505859374,3.0690640234375Q11.423143505859375,2.5834940234375,11.000223505859376,2.5833740234375L11.000013505859375,2.5833740234375Q10.577013505859375,2.5833740234375,10.117693505859375,3.0690640234375Q9.557983505859376,3.6609040234375,9.103643505859376,4.7967740234375Q8.826373505859376,5.4899340234375,8.624463505859374,6.2644540234375Q9.746203505859375,6.5833040234375,11.000013505859375,6.5833040234375Q12.253843505859376,6.5833040234375,13.375543505859374,6.2644540234375ZM7.219123505859375,5.7137640234375Q7.430033505859375,4.9419040234375,7.710923505859375,4.2396840234374995Q7.989563505859375,3.5430940234375,8.305403505859374,3.0002440234375003Q6.804443505859375,3.4964540234375,5.548133505859375,4.5833240234375Q6.335573505859375,5.2645740234375,7.219123505859375,5.7137640234375ZM16.258043505859376,17.5796740234375Q15.527243505859374,16.9534740234375,14.711443505859375,16.532274023437502Q14.524943505859374,17.1708740234375,14.289143505859375,17.7603740234375Q14.010443505859374,18.4569740234375,13.694643505859375,18.9998740234375Q15.080643505859374,18.5415740234375,16.258043505859376,17.5796740234375ZM13.310143505859376,15.9774740234375Q12.219443505859376,15.6666740234375,11.000013505859375,15.6666740234375Q9.780583505859376,15.6666740234375,8.689903505859375,15.9774740234375Q8.870023505859375,16.619274023437498,9.103643505859376,17.2032740234375Q9.557983505859376,18.3391740234375,10.117693505859375,18.9309740234375Q10.577013505859375,19.4166740234375,11.000013505859375,19.4166740234375Q11.423043505859376,19.4166740234375,11.882343505859374,18.9309740234375Q12.442043505859376,18.3391740234375,12.896343505859376,17.2032740234375Q13.130043505859375,16.619274023437498,13.310143505859376,15.9774740234375ZM7.288623505859375,16.532274023437502Q6.472843505859375,16.9534740234375,5.741963505859375,17.5797740234375Q6.919373505859375,18.5416740234375,8.305403505859374,18.9998740234375Q7.989563505859375,18.4569740234375,7.710923505859375,17.7603740234375Q7.475113505859375,17.1708740234375,7.288623505859375,16.532274023437502Z" fill-rule="evenodd" fill="#EAF2FF" fill-opacity="0.800000011920929"/></g></g></svg>