<svg xmlns="http://www.w3.org/2000/svg" xmlns:xlink="http://www.w3.org/1999/xlink" fill="none" version="1.1" width="24" height="24" viewBox="0 0 24 24"><defs><clipPath id="master_svg0_70_06601"><rect x="0" y="0" width="24" height="24" rx="0"/></clipPath></defs><g clip-path="url(#master_svg0_70_06601)"><g><rect x="0" y="0" width="24" height="24" rx="0" fill="#FFFFFF" fill-opacity="0"/></g><g><path d="M5.25,13L19.25,13Q19.3485,13,19.4451,12.980785000000001Q19.5417,12.96157,19.6327,12.923879Q19.7237,12.886188,19.8056,12.83147Q19.8875,12.776751,19.9571,12.707107Q20.026699999999998,12.637463,20.0815,12.55557Q20.136200000000002,12.473678,20.1739,12.382683Q20.2116,12.291689,20.230800000000002,12.19509Q20.25,12.0984914,20.25,12Q20.25,11.9015086,20.230800000000002,11.80491Q20.2116,11.708311,20.1739,11.617317Q20.136200000000002,11.526322,20.0815,11.44443Q20.026699999999998,11.362537,19.9571,11.292893Q19.8875,11.223249,19.8056,11.16853Q19.7237,11.113812,19.6327,11.076121Q19.5417,11.03843,19.4451,11.019214999999999Q19.3485,11,19.25,11L5.25,11Q5.1515086,11,5.05491,11.019214999999999Q4.958311,11.03843,4.867317,11.076121Q4.776322,11.113812,4.69443,11.16853Q4.612537,11.223249,4.542893,11.292893Q4.473249,11.362537,4.41853,11.44443Q4.363812,11.526322,4.326121,11.617317Q4.28843,11.708311,4.269215,11.80491Q4.25,11.9015086,4.25,12Q4.25,12.0984914,4.269215,12.19509Q4.28843,12.291689,4.326121,12.382683Q4.363812,12.473678,4.41853,12.55557Q4.473249,12.637463,4.542893,12.707107Q4.612537,12.776751,4.69443,12.83147Q4.776322,12.886188,4.867317,12.923879Q4.958311,12.96157,5.05491,12.980785000000001Q5.1515086,13,5.25,13Z" fill-rule="evenodd" fill="#EAF2FF" fill-opacity="0.800000011920929"/></g></g></svg>