<svg xmlns="http://www.w3.org/2000/svg" xmlns:xlink="http://www.w3.org/1999/xlink" fill="none" version="1.1" width="48" height="43" viewBox="0 0 48 43"><defs><filter id="master_svg0_60_05057" filterUnits="objectBoundingBox" color-interpolation-filters="sRGB" x="-8" y="-8" width="52" height="32"><feFlood flood-opacity="0" result="BackgroundImageFix"/><feBlend mode="normal" in="SourceGraphic" in2="BackgroundImageFix" result="shape"/><feGaussianBlur stdDeviation="2" result="effect1_foregroundBlur"/></filter><linearGradient x1="0.5" y1="0" x2="0.5" y2="1" id="master_svg1_60_04932"><stop offset="2.142857201397419%" stop-color="#25426A" stop-opacity="0"/><stop offset="100%" stop-color="#3385FF" stop-opacity="1"/></linearGradient><linearGradient x1="0.5" y1="0" x2="0.5" y2="1" id="master_svg2_60_04803"><stop offset="0%" stop-color="#FFFFFF" stop-opacity="0.4000000059604645"/><stop offset="100%" stop-color="#FFFFFF" stop-opacity="0.05000000074505806"/></linearGradient><clipPath id="master_svg3_60_04703"><rect x="12" y="7" width="24" height="24" rx="0"/></clipPath></defs><g><g filter="url(#master_svg0_60_05057)"><path d="M6 21C6 21 6 21 6 21L42 21C42 21 42 21 42 21L42 35C42 36.10456949966159 41.10456949966159 37 40 37L8 37C6.8954305003384135 37 6 36.10456949966159 6 35Z" fill="url(#master_svg1_60_04932)" fill-opacity="0.20000000298023224"/></g><g><rect x="5.5" y="0.5" width="37" height="37" rx="1.5" stroke="url(#master_svg2_60_04803)" fill-opacity="0" fill="none" stroke-width="1"/></g><g clip-path="url(#master_svg3_60_04703)"><g><rect x="12" y="7" width="24" height="24" rx="0" fill="#FFFFFF" fill-opacity="0"/></g><g><path d="M24.326700000000002,11.054886Q24.168,11,24,11Q23.83202,11,23.67326,11.054886L13.67326,14.512039999999999Q13.485265,14.57703,13.336452,14.70902Q13.187639,14.841000000000001,13.100663,15.01989Q13.013687000000001,15.19878,13.00179,15.39734Q12.989889999999999,15.5959,13.054886,15.78389Q13.091695,15.89036,13.15127,15.98598Q13.210844999999999,16.08159,13.290199,16.16155Q13.369554,16.241509999999998,13.46471,16.30182Q13.559866,16.36212,13.666054,16.39974L23.66605,19.94259Q23.82809,20,24,20Q24.1719,20,24.3339,19.94259L34.3339,16.39974Q34.5214,16.33332,34.669200000000004,16.2002Q34.817,16.06708,34.902699999999996,15.88753Q34.988299999999995,15.70798,34.998599999999996,15.50934Q35.009,15.3107,34.9426,15.1232Q34.905,15.01702,34.8447,14.92186Q34.784400000000005,14.8267,34.7044,14.74735Q34.6244,14.66799,34.528800000000004,14.60842Q34.4332,14.54884,34.3267,14.512039999999999L24.326700000000002,11.054886ZM24,13.05807L17.02711,15.46871L24,17.9391L30.9729,15.46871L24,13.05807Z" fill-rule="evenodd" fill="#EAF2FF" fill-opacity="0.800000011920929"/></g><g><path d="M24.330399999999997,23.94386L34.3304,20.443858Q34.518100000000004,20.378148,34.666399999999996,20.245592Q34.8147,20.113036,34.900999999999996,19.933815Q35,19.728204,35,19.5Q35,19.49073302,34.9998,19.4814676Q34.9969,19.321069,34.9439,19.16965Q34.9183,19.096703,34.8819,19.028545Q34.8455,18.960387,34.799,18.898638Q34.7525,18.836888,34.6971,18.783013Q34.6417,18.729138,34.5786,18.684417Q34.5156,18.639696999999998,34.4465,18.605192Q34.377300000000005,18.570688,34.3037,18.547219Q34.230000000000004,18.523751,34.1537,18.511875Q34.0773,18.5,34,18.5L33.990899999999996,18.500041Q33.8256,18.501545,33.6696,18.556142L24,21.94052L14.33035,18.556142Q14.169946,18.5,14,18.5Q13.9798552,18.5,13.9597267,18.500811Q13.885034,18.503822,13.811619,18.517904Q13.738203,18.531986,13.667698,18.556827Q13.597192,18.581668,13.531163,18.616715Q13.465135,18.651762,13.40505,18.696237Q13.344966,18.740712,13.292162,18.793625Q13.239358,18.846538,13.195008,18.906714Q13.150658,18.966891,13.115747,19.032992Q13.080837,19.099093,13.056142,19.16965Q13,19.330054,13,19.5Q13,19.5201448,13.000811,19.5402733Q13.003822,19.614966,13.017904,19.688381Q13.031986,19.761797,13.056827,19.832302Q13.081668,19.902808,13.116715,19.968837Q13.151762,20.034865,13.196237,20.09495Q13.240712,20.155034,13.293625,20.207838Q13.346538,20.260642,13.406714000000001,20.304992Q13.466891,20.349342,13.532992,20.384253Q13.599093,20.419163,13.66965,20.443858L23.66965,23.94386Q23.83005,24,24,24Q24.1699,24,24.330399999999997,23.94386Z" fill-rule="evenodd" fill="#EAF2FF" fill-opacity="0.800000011920929"/></g><g><path d="M24.330399999999997,27.94379896484375L34.3304,24.44379696484375Q34.518100000000004,24.37808696484375,34.666399999999996,24.24553096484375Q34.8147,24.11297496484375,34.900999999999996,23.93375396484375Q35,23.72814296484375,35,23.49993896484375Q35,23.49067198484375,34.9998,23.48140656484375Q34.9969,23.32100796484375,34.9439,23.16958896484375Q34.9183,23.09664196484375,34.8819,23.02848396484375Q34.8455,22.96032596484375,34.799,22.89857696484375Q34.7525,22.83682696484375,34.6971,22.78295196484375Q34.6417,22.72907696484375,34.5786,22.68435596484375Q34.5156,22.639635964843748,34.4465,22.60513096484375Q34.377300000000005,22.57062696484375,34.3037,22.54715796484375Q34.230000000000004,22.52368996484375,34.1537,22.51181396484375Q34.0773,22.49993896484375,34,22.49993896484375L33.990899999999996,22.49997996484375Q33.8256,22.50148396484375,33.6696,22.55608096484375L24,25.94045896484375L14.33035,22.55608096484375Q14.169946,22.49993896484375,14,22.49993896484375Q13.9798552,22.49993896484375,13.9597267,22.50074996484375Q13.885034,22.50376096484375,13.811619,22.51784296484375Q13.738203,22.53192496484375,13.667698,22.55676596484375Q13.597192,22.58160696484375,13.531163,22.61665396484375Q13.465135,22.65170096484375,13.40505,22.69617596484375Q13.344966,22.74065096484375,13.292162,22.79356396484375Q13.239358,22.84647696484375,13.195008,22.90665296484375Q13.150658,22.96682996484375,13.115747,23.03293096484375Q13.080837,23.09903196484375,13.056142,23.16958896484375Q13,23.32999296484375,13,23.49993896484375Q13,23.52008376484375,13.000811,23.54021226484375Q13.003822,23.61490496484375,13.017904,23.68831996484375Q13.031986,23.76173596484375,13.056827,23.83224096484375Q13.081668,23.90274696484375,13.116715,23.96877596484375Q13.151762,24.03480396484375,13.196237,24.09488896484375Q13.240712,24.15497296484375,13.293625,24.20777696484375Q13.346538,24.26058096484375,13.406714000000001,24.30493096484375Q13.466891,24.34928096484375,13.532992,24.38419196484375Q13.599093,24.41910196484375,13.66965,24.44379696484375L23.66965,27.94379896484375Q23.83005,27.99993896484375,24,27.99993896484375Q24.1699,27.99993896484375,24.330399999999997,27.94379896484375Z" fill-rule="evenodd" fill="#EAF2FF" fill-opacity="0.800000011920929"/></g></g></g></svg>